<svg width="109" height="32" viewBox="0 0 109 32" fill="none" xmlns="http://www.w3.org/2000/svg">
<path fill-rule="evenodd" clip-rule="evenodd" d="M3.20008 28.8002H19.2002V3.20008H3.20008V28.8002ZM0 32H22.4V0H0V32Z" fill="#FFCC00"/>
<path fill-rule="evenodd" clip-rule="evenodd" d="M37.2366 14.3549H35.8521C34.0383 11.7933 32.2397 9.24738 30.4418 6.36736H30.4261V14.3549H28.8986V3.21727H30.2828C32.0971 5.76268 33.895 8.29249 35.677 11.1561H35.7087V3.21727H37.2366V14.3549Z" fill="black"/>
<path fill-rule="evenodd" clip-rule="evenodd" d="M41.5963 3.21727L37.7452 14.3549H39.4006L40.3708 11.3159H43.7283L44.6033 14.3549H46.736L43.1873 3.21727H41.5963ZM40.8644 9.94755C41.3095 8.48399 41.755 7.13127 42.1531 5.41141H42.1851C42.6303 7.13127 43.0284 8.48399 43.442 9.94755H40.8644Z" fill="black"/>
<path fill-rule="evenodd" clip-rule="evenodd" d="M48.5337 14.3549V4.71124H45.6058V3.21727H53.3711V4.71124H50.4426V14.3549H48.5337Z" fill="black"/>
<path fill-rule="evenodd" clip-rule="evenodd" d="M53.9916 14.3549H55.8847V3.21727H53.9916V14.3549Z" fill="black"/>
<path fill-rule="evenodd" clip-rule="evenodd" d="M61.7728 14.5456C64.6848 14.5456 66.4989 11.9526 66.4989 8.62736C66.4989 5.50716 64.4933 3.0255 61.7728 3.0255C59.0515 3.0255 57.0467 5.50716 57.0467 8.62736C57.0467 11.9526 58.86 14.5456 61.7728 14.5456ZM61.7728 12.9553C59.7834 12.9553 59.0835 10.7585 59.0835 8.62736C59.0835 6.57447 59.8794 4.61628 61.7728 4.61628C63.6662 4.61628 64.4613 6.57447 64.4613 8.62736C64.4613 10.7585 63.7617 12.9553 61.7728 12.9553Z" fill="black"/>
<path fill-rule="evenodd" clip-rule="evenodd" d="M75.9975 14.3549H74.6133C72.8001 11.7933 71.0009 9.24738 69.2035 6.36736H69.1866V14.3549H67.6598V3.21727H69.0448C70.8586 5.76268 72.6567 8.29249 74.4388 11.1561H74.4708V3.21727H75.9975V14.3549Z" fill="black"/>
<path fill-rule="evenodd" clip-rule="evenodd" d="M80.3572 3.21727L76.5059 14.3549H78.1618L79.1328 11.3159H82.4897L83.365 14.3549H85.4973L81.9488 3.21727H80.3572ZM79.6253 9.94755C80.0713 8.48399 80.517 7.13127 80.9151 5.41141H80.9463C81.3923 7.13127 81.7901 8.48399 82.2033 9.94755H79.6253Z" fill="black"/>
<path fill-rule="evenodd" clip-rule="evenodd" d="M86.0543 3.21727H87.9477V12.8593H91.7189V14.3549H86.0543V3.21727Z" fill="black"/>
<path fill-rule="evenodd" clip-rule="evenodd" d="M36.0613 23.6731V28.2717C35.043 28.67 33.9772 28.9557 32.8948 28.9557C29.617 28.9557 27.5482 26.4111 27.5482 23.1317C27.5482 20.0935 29.617 17.4359 32.9586 17.4359C33.9926 17.4359 35.0268 17.8181 35.6635 18.295L35.043 19.616C34.5332 19.2978 33.7379 19.0275 33.0065 19.0275C30.9692 19.0275 29.5847 20.6349 29.5847 23.1637C29.5847 25.8056 31.1766 27.3655 32.8152 27.3655C33.3247 27.3655 33.7543 27.3015 34.1521 27.0957V23.6731H36.0613Z" fill="black"/>
<path fill-rule="evenodd" clip-rule="evenodd" d="M42.8874 19.1238H39.705V22.1781H42.8239V23.6731H39.705V27.2694H43.4608V28.7661H37.7957V17.6264H42.8874V19.1238Z" fill="black"/>
<path fill-rule="evenodd" clip-rule="evenodd" d="M48.7749 28.9557C51.6872 28.9557 53.5007 26.3622 53.5007 23.0372C53.5007 19.9184 51.4959 17.4359 48.7749 17.4359C46.0538 17.4359 44.0491 19.9184 44.0491 23.0372C44.0491 26.3622 45.8631 28.9557 48.7749 28.9557ZM48.7749 27.3655C46.7858 27.3655 46.0859 25.1703 46.0859 23.0372C46.0859 20.9851 46.8815 19.0275 48.7749 19.0275C50.6688 19.0275 51.4642 20.9851 51.4642 23.0372C51.4642 25.1703 50.764 27.3655 48.7749 27.3655Z" fill="black"/>
<path fill-rule="evenodd" clip-rule="evenodd" d="M62.6661 23.6731V28.2717C61.6477 28.67 60.5822 28.9557 59.4996 28.9557C56.222 28.9557 54.153 26.4111 54.153 23.1317C54.153 20.0935 56.222 17.4359 59.5639 17.4359C60.5976 17.4359 61.6318 17.8181 62.2682 18.295L61.6477 19.616C61.1388 19.2978 60.3428 19.0275 59.6109 19.0275C57.5742 19.0275 56.19 20.6349 56.19 23.1637C56.19 25.8056 57.7816 27.3655 59.4205 27.3655C59.9294 27.3655 60.3595 27.3015 60.7573 27.0957V23.6731H62.6661Z" fill="black"/>
<path fill-rule="evenodd" clip-rule="evenodd" d="M71.1625 28.7661L68.9199 24.1511C70.1454 23.4991 70.8453 22.1781 70.8453 20.842C70.8453 18.6767 69.5244 17.6264 67.3921 17.6264H64.4163V28.7661H66.3259V24.5648H67.185L68.9832 28.7661H71.1625ZM66.3259 19.1238H67.1697C68.2994 19.1238 68.935 19.7755 68.935 20.9211C68.935 22.4162 68.0288 23.0846 67.121 23.1317C66.9303 23.1486 66.4854 23.1637 66.3259 23.1809V19.1238Z" fill="black"/>
<path fill-rule="evenodd" clip-rule="evenodd" d="M75.0455 17.6264L71.1953 28.7661H72.8501L73.8206 25.7268H77.1783L78.0536 28.7661H80.1856L76.6371 17.6264H75.0455ZM74.3136 24.3577C74.7591 22.8941 75.2048 21.5414 75.6026 19.8237H75.6338C76.0801 21.5414 76.4779 22.8941 76.8918 24.3577H74.3136Z" fill="black"/>
<path fill-rule="evenodd" clip-rule="evenodd" d="M83.4954 23.1317C83.2994 23.1473 82.8328 23.1621 82.6995 23.1777V19.1238H83.5586C84.673 19.1238 85.3089 19.7755 85.3089 20.9211C85.3089 22.4162 84.4016 23.0846 83.4954 23.1317ZM83.7652 17.6264H80.7902V28.7661H82.6995V24.5648H83.5586C85.8348 24.5648 87.219 22.7182 87.219 20.842C87.219 18.6767 85.8972 17.6264 83.7652 17.6264Z" fill="black"/>
<path fill-rule="evenodd" clip-rule="evenodd" d="M96.0661 28.7661H94.1558V23.4028H90.1934V28.7661H88.3V17.6264H90.1934V21.9078H94.1558V17.6586H96.0661V28.7661Z" fill="black"/>
<path fill-rule="evenodd" clip-rule="evenodd" d="M97.8955 28.7658H99.7892V17.6264H97.8955V28.7658Z" fill="black"/>
<path fill-rule="evenodd" clip-rule="evenodd" d="M108.381 19.6475C107.919 19.3608 107.156 19.0275 106.424 19.0275C104.483 19.0275 103.067 20.6349 103.067 23.1637C103.067 25.8056 104.627 27.3655 106.472 27.3655C107.205 27.3655 107.888 27.1263 108.381 26.8079L108.907 28.1931C108.334 28.5904 107.316 28.9557 106.393 28.9557C103.114 28.9557 101.046 26.4111 101.046 23.1317C101.046 20.0935 103.099 17.4359 106.424 17.4359C107.41 17.4359 108.334 17.8501 108.987 18.295L108.381 19.6475Z" fill="black"/>
</svg>
